<mxfile host="app.diagrams.net" modified="2023-07-29T11:42:08.200Z" agent="Mozilla/5.0 (Windows NT 10.0; WOW64) AppleWebKit/537.36 (KHTML, like Gecko) Chrome/114.0.0.0 YaBrowser/23.7.1.1144 Yowser/2.5 Safari/537.36" version="21.6.6" etag="y5I1wpjozj_gngMW7t_r" type="github">
  <diagram name="Страница 1" id="bu9mYShzikA9adgMjoF7">
    <mxGraphModel>
      <root>
        <mxCell id="0" />
        <mxCell id="1" parent="0" />
      </root>
    </mxGraphModel>
  </diagram>
</mxfile>
